<?xml version="1.0" standalone="no"?>
<!DOCTYPE svg PUBLIC "-//W3C//DTD SVG 20010904//EN"
 "http://www.w3.org/TR/2001/REC-SVG-20010904/DTD/svg10.dtd">
<svg version="1.0" xmlns="http://www.w3.org/2000/svg"
 width="746.000000pt" height="746.000000pt" viewBox="0 0 746.000000 746.000000"
 preserveAspectRatio="xMidYMid meet">
<metadata>
Created by potrace 1.14, written by Peter Selinger 2001-2017
</metadata>
<g transform="translate(0.000000,746.000000) scale(0.100000,-0.100000)"
fill="#000000" stroke="none">
<path d="M3508 7455 c-1 -1 -43 -6 -93 -9 -49 -4 -121 -11 -160 -16 -38 -6
-88 -13 -110 -16 -233 -32 -591 -134 -850 -242 -201 -83 -519 -253 -620 -329
-6 -5 -39 -28 -75 -52 -61 -42 -207 -152 -259 -196 -118 -100 -344 -321 -434
-426 -131 -153 -310 -404 -399 -559 -116 -202 -168 -313 -278 -590 -63 -159
-147 -474 -176 -660 -3 -19 -7 -42 -9 -50 -2 -8 -7 -41 -10 -73 -4 -32 -8 -66
-10 -76 -19 -101 -28 -584 -12 -736 3 -38 9 -97 13 -130 5 -51 22 -168 39
-265 3 -14 16 -74 31 -135 14 -60 27 -121 30 -134 3 -14 7 -28 10 -33 3 -4 7
-16 9 -27 9 -50 103 -318 146 -416 200 -464 458 -846 808 -1195 241 -240 473
-419 761 -587 408 -237 926 -415 1365 -469 28 -3 61 -7 75 -9 203 -26 749 -26
875 0 20 4 73 13 130 21 137 18 362 70 525 121 331 102 636 245 925 432 92 59
233 158 245 171 3 3 39 32 80 65 41 32 91 73 110 90 44 38 328 324 355 356 24
29 182 228 198 249 24 30 177 260 177 265 0 3 17 33 38 67 21 35 51 88 66 118
15 30 31 62 37 70 11 19 78 164 114 250 114 270 212 634 250 925 2 17 7 48 10
70 14 101 20 237 20 440 0 196 -9 397 -19 414 -2 3 -7 39 -10 80 -4 41 -9 77
-11 81 -2 3 -6 26 -10 50 -3 25 -15 88 -26 140 -27 125 -25 116 -44 185 -9 33
-18 70 -21 82 -9 44 -113 331 -157 434 -138 321 -303 592 -546 899 -83 104
-351 379 -445 455 -27 22 -54 45 -60 51 -6 6 -60 47 -119 93 -330 251 -695
442 -1086 571 -141 47 -308 93 -381 105 -19 3 -42 8 -50 10 -18 5 -54 12 -140
25 -36 6 -76 13 -90 15 -14 3 -52 7 -86 11 -33 3 -74 8 -90 10 -33 6 -550 14
-556 9z"/>
</g>
</svg>
